<svg xmlns="http://www.w3.org/2000/svg" xmlns:xlink="http://www.w3.org/1999/xlink" width="966.03" height="967.528" viewBox="0 0 966.03 967.528">
  <defs>
    <linearGradient id="linear-gradient" x1="0.28" y1="0.252" x2="0.64" y2="0.658" gradientUnits="objectBoundingBox">
      <stop offset="0.11" stop-color="#fd0" stop-opacity="0.502"/>
      <stop offset="0.32" stop-color="#fed30b" stop-opacity="0.612"/>
      <stop offset="0.78" stop-color="#fcba28" stop-opacity="0.89"/>
      <stop offset="0.96" stop-color="#fbb034"/>
    </linearGradient>
    <linearGradient id="linear-gradient-2" y1="0.5" x2="1" y2="0.5" gradientUnits="objectBoundingBox">
      <stop offset="0" stop-color="#fd0"/>
      <stop offset="1" stop-color="#fbb034"/>
    </linearGradient>
    <linearGradient id="linear-gradient-3" x1="-0.003" y1="0.5" x2="1.003" y2="0.5" xlink:href="#linear-gradient-2"/>
    <linearGradient id="linear-gradient-4" x1="-0.003" y1="0.499" x2="0.997" y2="0.499" xlink:href="#linear-gradient-2"/>
    <linearGradient id="linear-gradient-5" x1="0" y1="0.5" x2="1.002" y2="0.5" xlink:href="#linear-gradient-2"/>
    <linearGradient id="linear-gradient-6" x1="-0.002" y1="0.5" x2="1" y2="0.5" xlink:href="#linear-gradient-2"/>
    <linearGradient id="linear-gradient-7" x1="0" y1="0.5" x2="1" y2="0.5" xlink:href="#linear-gradient-2"/>
    <linearGradient id="linear-gradient-8" x1="0" y1="0.5" x2="1" y2="0.5" xlink:href="#linear-gradient-2"/>
    <linearGradient id="linear-gradient-10" x1="0" y1="0.5" x2="0.999" y2="0.5" xlink:href="#linear-gradient-2"/>
    <linearGradient id="linear-gradient-11" x1="0" y1="0.499" x2="1.001" y2="0.499" xlink:href="#linear-gradient-2"/>
    <linearGradient id="linear-gradient-12" x1="0" y1="0.5" x2="1.002" y2="0.5" xlink:href="#linear-gradient-2"/>
    <linearGradient id="linear-gradient-13" x1="-0.003" y1="0.499" x2="1.003" y2="0.499" xlink:href="#linear-gradient-2"/>
    <linearGradient id="linear-gradient-14" x1="0" y1="0.5" x2="1" y2="0.5" xlink:href="#linear-gradient-2"/>
    <linearGradient id="linear-gradient-15" x1="-0.002" y1="0.501" x2="1" y2="0.501" xlink:href="#linear-gradient-2"/>
    <linearGradient id="linear-gradient-16" x1="-0.002" y1="0.498" x2="0.999" y2="0.498" xlink:href="#linear-gradient-2"/>
    <linearGradient id="linear-gradient-17" x1="0" y1="0.5" x2="1.001" y2="0.5" xlink:href="#linear-gradient-2"/>
    <linearGradient id="linear-gradient-18" x1="-0.004" y1="0.521" x2="1" y2="0.521" xlink:href="#linear-gradient-2"/>
    <linearGradient id="linear-gradient-19" x1="0.072" y1="0.5" x2="0.928" y2="0.5" xlink:href="#linear-gradient-2"/>
    <linearGradient id="linear-gradient-20" x1="0.021" y1="0.5" x2="0.979" y2="0.5" xlink:href="#linear-gradient-2"/>
    <linearGradient id="linear-gradient-21" x1="-3.45" y1="0.5" x2="4.45" y2="0.5" xlink:href="#linear-gradient-2"/>
    <linearGradient id="linear-gradient-22" x1="-0.006" y1="0.505" x2="0.983" y2="0.505" xlink:href="#linear-gradient-2"/>
    <linearGradient id="linear-gradient-23" x1="0.003" y1="0.526" x2="1.004" y2="0.526" xlink:href="#linear-gradient-2"/>
    <linearGradient id="linear-gradient-24" x1="-0.019" y1="0.496" x2="1.001" y2="0.496" xlink:href="#linear-gradient-2"/>
    <linearGradient id="linear-gradient-25" x1="-0.005" y1="0.5" x2="0.996" y2="0.5" xlink:href="#linear-gradient-2"/>
    <linearGradient id="linear-gradient-26" x1="0.274" y1="0.5" x2="0.725" y2="0.5" xlink:href="#linear-gradient-2"/>
    <linearGradient id="linear-gradient-27" x1="0" y1="0.505" x2="1" y2="0.505" xlink:href="#linear-gradient-2"/>
    <linearGradient id="linear-gradient-28" x1="-0.147" y1="0.5" x2="0.868" y2="0.5" xlink:href="#linear-gradient-2"/>
    <linearGradient id="linear-gradient-29" x1="-0.35" y1="0.5" x2="1.35" y2="0.5" xlink:href="#linear-gradient-2"/>
    <linearGradient id="linear-gradient-30" x1="0" y1="0.496" x2="1.016" y2="0.496" xlink:href="#linear-gradient-2"/>
    <linearGradient id="linear-gradient-31" x1="-0.5" y1="0.5" x2="1.5" y2="0.5" xlink:href="#linear-gradient-2"/>
    <linearGradient id="linear-gradient-32" x1="0" y1="0.5" x2="1" y2="0.5" xlink:href="#linear-gradient-2"/>
    <linearGradient id="linear-gradient-33" x1="0" y1="0.5" x2="0.999" y2="0.5" xlink:href="#linear-gradient-2"/>
    <linearGradient id="linear-gradient-34" x1="0" y1="0.5" x2="1" y2="0.5" xlink:href="#linear-gradient-2"/>
    <linearGradient id="linear-gradient-35" x1="0" y1="0.502" x2="1" y2="0.502" xlink:href="#linear-gradient-2"/>
    <linearGradient id="linear-gradient-36" x1="-0.004" y1="0.491" x2="1" y2="0.491" xlink:href="#linear-gradient-2"/>
    <linearGradient id="linear-gradient-37" x1="0.042" y1="0.5" x2="0.958" y2="0.5" xlink:href="#linear-gradient-2"/>
    <linearGradient id="linear-gradient-38" x1="0.007" y1="0.5" x2="0.993" y2="0.5" xlink:href="#linear-gradient-2"/>
    <linearGradient id="linear-gradient-39" x1="-3.2" y1="0.5" x2="4.15" y2="0.5" xlink:href="#linear-gradient-2"/>
    <linearGradient id="linear-gradient-40" x1="0" y1="0.501" x2="1" y2="0.501" xlink:href="#linear-gradient-2"/>
    <linearGradient id="linear-gradient-41" x1="0.01" y1="0.497" x2="1.014" y2="0.497" xlink:href="#linear-gradient-2"/>
    <linearGradient id="linear-gradient-42" x1="-0.015" y1="0.508" x2="0.986" y2="0.508" xlink:href="#linear-gradient-2"/>
    <linearGradient id="linear-gradient-43" x1="0" y1="0.501" x2="1.005" y2="0.501" xlink:href="#linear-gradient-2"/>
    <linearGradient id="linear-gradient-44" x1="0.22" y1="0.5" x2="0.78" y2="0.5" xlink:href="#linear-gradient-2"/>
    <linearGradient id="linear-gradient-45" x1="0" y1="0.5" x2="1" y2="0.5" xlink:href="#linear-gradient-2"/>
    <linearGradient id="linear-gradient-46" x1="0.01" y1="0.499" x2="0.991" y2="0.499" xlink:href="#linear-gradient-2"/>
    <linearGradient id="linear-gradient-47" x1="-0.2" y1="0.5" x2="1.15" y2="0.5" xlink:href="#linear-gradient-2"/>
    <linearGradient id="linear-gradient-48" x1="0" y1="0.505" x2="0.988" y2="0.505" xlink:href="#linear-gradient-2"/>
    <linearGradient id="linear-gradient-49" x1="-0.4" y1="0.5" x2="1.4" y2="0.5" xlink:href="#linear-gradient-2"/>
  </defs>
  <g id="Group_14" data-name="Group 14" transform="translate(-954.613 -113)">
    <g id="gradient_circle" data-name="gradient circle" transform="translate(1031 647)">
      <g id="BACKGROUND">
        <circle id="Ellipse_65" data-name="Ellipse 65" cx="52.88" cy="52.88" r="52.88" transform="translate(0 0)" fill="url(#linear-gradient)"/>
      </g>
    </g>
    <g id="artist2" transform="translate(954.618 112.983)">
      <g id="Background_Complete" data-name="Background Complete" transform="translate(0.497 0.017)">
        <path id="Path_160" data-name="Path 160" d="M996.885,43S856.277,97.895,736.427,74.065,468.9,52.091,408.315,96.06,219,125.456,143.281,195.935s-153.347,186.66-85.2,241.307,141.989,93.423,123.065,166.581S97.848,639.28,128.13,741.5s25.335,198.739,7.936,215.54,50.69,28.014,50.69,28.014H996.885Z" transform="translate(-31.857 -18.03)" fill="#ebebeb" stroke="#ebebeb" stroke-miterlimit="10" stroke-width="1" opacity="0.51"/>
        <path id="Path_161" data-name="Path 161" d="M974.041,145.569s-73.8-126.446-174.229-111.79-128.8,133.785-278.639,98.968S227.279-35.855,140.8,72.348s-84.641,199.543-37,272.95,135.6,289.07,76.973,384.636S-.629,904.266,79.993,953.739s194,44.176,194,44.176h700.05Z" transform="translate(-9.013 -30.887)" fill="#ebebeb"/>
        <path id="Path_162" data-name="Path 162" d="M166.112,498.294s-47.907-103.977.536-118.324,109.6-60.523,120.3,9.194S354.214,497.7,316,506.663,166.112,498.294,166.112,498.294Z" transform="translate(88.208 309.594)" fill="#f5f5f5"/>
        <path id="Path_163" data-name="Path 163" d="M398.387,249.93S474.8,87.43,528.255,176.359s39.62,104.368,22.036,225.084-66.83,25.685-94.144,79.3-71.881-89.465-69.469-126.467S398.387,249.93,398.387,249.93Z" transform="translate(344.648 95.278)" fill="#e0e0e0"/>
        <path id="Path_164" data-name="Path 164" d="M349.654,456.808s92.928,131.661,129.621,66.934,51.988-124.467,0-199.316,102.431-172.7,4.6-198.7-146.771,0-168.169,61.842S349.654,456.808,349.654,456.808Z" transform="translate(264.194 59.145)" opacity="0.5" fill="url(#linear-gradient-2)"/>
        <path id="Path_165" data-name="Path 165" d="M218.257,421.934s-85.2-51.741-62.728-99.833-109.46-32.982-38.61-118.654S272.1,131.71,292.776,158.322s82.992.989,123.828-30.735,108.512,15.254,120.447,55.225S574.59,296.044,561.17,343.6,586.154,451,491.619,484.559,218.257,421.934,218.257,421.934Z" transform="translate(36.001 60.666)" fill="#e0e0e0"/>
        <rect id="Rectangle_23" data-name="Rectangle 23" width="94.267" height="119.004" transform="translate(797.475 313.439) rotate(-0.23)" fill="url(#linear-gradient-3)"/>
        <path id="Path_166" data-name="Path 166" d="M419.371,302.285h6.8l19.109-.165,68.335-.474-.371.371-.557-119h0l.454.453-94.268.33.392-.412c0,35.291.124,64.975.144,85.9v33.106a4.41,4.41,0,0,1,0-.536v-8.019l-.206-24.283L418.65,183.4v-.392h.412l94.268-.433h.453v.453h0l.412,119v.371H420.979Z" transform="translate(378.683 130.12)" fill="url(#linear-gradient-4)"/>
        <rect id="Rectangle_24" data-name="Rectangle 24" width="13.069" height="3.175" transform="translate(837.138 433.291)" fill="url(#linear-gradient-5)"/>
        <rect id="Rectangle_25" data-name="Rectangle 25" width="28.592" height="41.29" transform="translate(831.077 354.945) rotate(-0.23)" fill="#ebebeb"/>
        <rect id="Rectangle_26" data-name="Rectangle 26" width="13.069" height="2.721" transform="translate(840.578 311.538) rotate(-0.24)" fill="url(#linear-gradient-6)"/>
        <path id="Path_167" data-name="Path 167" d="M220.068,115.14h-85.2V226.229l85.2,2.144Z" transform="translate(142.125 122.175)" fill="#e0e0e0"/>
        <path id="Path_168" data-name="Path 168" d="M211.86,117.06H137.32V217.821l74.54,2.515Z" transform="translate(144.726 124.212)" fill="#fff"/>
        <path id="Path_169" data-name="Path 169" d="M192.624,126.906,143.15,125.03v70.417h49.474Z" transform="translate(150.913 132.672)" fill="#e0e0e0"/>
        <path id="Path_170" data-name="Path 170" d="M143.15,195.447l49.474-36.177L143.15,125.03Z" transform="translate(150.913 132.672)" fill="url(#linear-gradient-7)"/>
        <path id="Path_171" data-name="Path 171" d="M173.092,198.04H114.94v75.818l58.152,1.443Z" transform="translate(120.971 210.164)" fill="url(#linear-gradient-8)"/>
        <path id="Path_172" data-name="Path 172" d="M167.485,199.35H116.61V268.1l50.875,1.711Z" transform="translate(122.744 211.555)" fill="#fff"/>
        <path id="Path_173" data-name="Path 173" d="M154.356,206.079l-33.766-1.3v48.072h33.766Z" transform="translate(126.968 217.318)" stroke="#707070" stroke-miterlimit="10" stroke-width="1" fill="url(#linear-gradient-7)"/>
        <path id="Path_174" data-name="Path 174" d="M120.59,252.852l33.766-24.7L120.59,204.78Z" transform="translate(126.968 217.318)" fill="#f5f5f5"/>
        <path id="Path_175" data-name="Path 175" d="M420.368,457.6c-2.288-1.958-7.38-8.122-3.443-15.316,1.443-2.639,4.494-3.937,7.277-5.092a29.58,29.58,0,0,0,7.978-4.123c4.329-3.669,5.525-9.75,8.39-14.636A18.388,18.388,0,0,1,456.5,408.91c7.442.33,13.646,6.39,16.491,13.275s2.907,14.553,2.968,22c0,4.123-.144,8.761-3.2,11.544s-7.009,2.6-10.8,2.474l-40.651-1.237" transform="translate(375.315 370.346)" fill="url(#linear-gradient-10)"/>
        <path id="Path_176" data-name="Path 176" d="M502.455,385.69H405.24l17.522,103.936a11.626,11.626,0,0,0,8.246,9.256h.35a4.472,4.472,0,0,1,.866.227,12.245,12.245,0,0,0,2.061.227h43.763a12.255,12.255,0,0,0,2.371-.227,11.668,11.668,0,0,0,9.833-10.163l8.452-71.613.371-2.845h0l3.319-28.159Zm-18.346,66.294h-9.977l1.01-30.158h11.564Zm3.566-30.158h9.544l-3.546,30.158H485.14Zm-28.509,63.615-.6-26.2H473l-.866,26.2Zm-15.522-26.2H457.6l.6,26.2H445.685Zm1.072,26.2H433.007l-4.123-26.2h13.791Zm-1.649-33.436-2.35-30.158h16.017l.7,30.158Zm15.316,0-.7-30.158h16.491l-1.01,30.158Zm-.866-37.394-.639-27.932h18.553l-.928,27.932Zm-.969,0H440.057l-2.185-27.932h17.955Zm-17.378,0H421.814l-1.732-10.8c-1.814-11.3-2.494-15.543-2.865-17.13h19.769Zm.557,7.236,2.35,30.158h-14.43l-1.464-9.256-3.319-20.9ZM426.74,452.005h-9.379l-5.092-30.158h9.689c1.525,9.3,3.154,19.686,4.824,30.158Zm1.134,7.236,4.123,26.2h-9.008l-4.411-26.2Zm45.1,26.2.866-26.2h9.606l-2.247,26.2Zm2.371-70.83.928-27.932h13.4l-2.391,27.932Zm-59.08-27.932c.392,2.061,2.061,13.007,4.535,27.932h-9.75l-4.7-27.932ZM489.7,485.461h-7.5l2.247-26.2h8.349Zm8.349-70.829h-9.792l2.391-27.932h10.678Z" transform="translate(364.449 345.7)" fill="#263238"/>
        <path id="Path_177" data-name="Path 177" d="M246.084,456.71s-99.38,10.7-25.994,41.228,171.385,41.228,246.234,9.173,138.711-55.039,66.253-58.09S246.084,456.71,246.084,456.71Z" transform="translate(139.258 412.34)" fill="#ebebeb"/>
      </g>
      <g id="Floor" transform="translate(199.036 845.237)">
        <path id="Path_178" data-name="Path 178" d="M862.934,441.57c0,.371-164.5.66-367.362.66s-367.4-.289-367.4-.66,164.458-.66,367.4-.66S862.934,441.219,862.934,441.57Z" transform="translate(-128.17 -440.91)" fill="#263238"/>
      </g>
      <g id="Sketches" transform="translate(429.314 200.061)">
        <rect id="Rectangle_27" data-name="Rectangle 27" width="106.347" height="148.4" transform="matrix(1, 0.004, -0.004, 1, 8.357, 86.815)" fill="#f5f5f5"/>
        <path id="Path_179" data-name="Path 179" d="M256.051,256.443H279.1l-.247.247-.144-27.417v-.33h.33l16.491-.289h.371v.371l.557,27.6-.412-.412,23.644.165-.454.454-.66-24.922-.495-19.027.165.33L285.261,187.8h.66l-30.385,27.52v-.247l.35,30.344v10.431a7.324,7.324,0,0,1,0,.763,5.266,5.266,0,0,1,0-.7v-2.061l-.227-8.246L255,214.864v-.144h.1l30.261-27.643.247-.227.268.206,32.982,25.355.165.124v.206l.495,19.027.639,24.922v.454h-.454l-23.624-.206h-.412v-.412l-.474-27.6.392.371-16.491.227.33-.35v27.664h-.247l-17.089-.186h-5.957Z" transform="translate(-223.832 -65.393)" fill="url(#linear-gradient-11)"/>
        <path id="Path_180" data-name="Path 180" d="M247,172.352h6.576l18.882.124,68.665.618h.35V309.95h-1.154l-93.134.557H247V182.494l.165,28.365.412,99.215-.412-.412,93.134-.639h.7l-.453.454V173.424l.35.35-68.438-.989-18.965-.309H248.5Z" transform="translate(-232.323 -80.846)" fill="url(#linear-gradient-12)"/>
        <path id="Path_181" data-name="Path 181" d="M255.05,138.19l22.407,22.222,3.917-5.071L258.843,135.16Z" transform="translate(-159.133 -56.621)" fill="#455a64"/>
        <path id="Path_182" data-name="Path 182" d="M208.52,206.421l22.387,22.222,3.917-5.071-22.531-20.2Z" transform="translate(-208.52 15.777)" fill="#455a64"/>
        <path id="Path_183" data-name="Path 183" d="M310.488,235.687a40.052,40.052,0,0,1-6.019.371c-3.711.1-8.843.206-14.43.247H276.331l.33-.35v4.989a6.865,6.865,0,0,1-.124,1.835,6.861,6.861,0,0,1-.247-1.835c0-1.175-.206-2.886-.33-4.989v-.33h.35c3.587,0,8.411-.186,13.708-.227h14.43a40.077,40.077,0,0,1,6.04.289Z" transform="translate(-201.585 -13.88)" fill="#263238"/>
        <rect id="Rectangle_28" data-name="Rectangle 28" width="74.584" height="104.066" transform="translate(178.432 126.511) rotate(-12.095)" fill="#ebebeb"/>
        <path id="Path_184" data-name="Path 184" d="M344.067,250.275h.289l.8-.186,3.092-.7,11.564-2.577-.185.289-4.123-18.717v-.33h.33l11.3-2.639h.371v.371l4.411,18.532-.495-.309,16.182-3.36-.33.536-4.123-16.965-2.989-12.946.247.289-26.283-12.575.495-.124-16.78,23.253v-.247l4.638,20.614,1.237,5.689.309,1.5a3.813,3.813,0,0,1,0,.536,2.412,2.412,0,0,1-.144-.454l-.371-1.422-1.381-5.586-5.009-20.8v-.268l16.636-23.356.206-.268.309.144,26.3,12.513h.185v.206l3.133,12.946,4.123,16.965.1.453h-.453l-16.2,3.319h-.412v-.392l-4.35-18.821.453.289-11.317,2.577.247-.412,3.958,18.759v.247H359.8l-11.75,2.329-3.051.577Z" transform="translate(-136.67 -53.494)" fill="#263238"/>
        <path id="Path_185" data-name="Path 185" d="M327.63,198.478l1.113-.268,3.36-.721,12.925-2.7L392.11,185.1h.35v.35l20.016,93.072v.433h-.433l-.474.1-63.635,14.018h-.412v-.412l-14.43-68.026L328.97,205.3l-1.051-5.112-.247-1.3a2.726,2.726,0,0,1,0-.433,4.129,4.129,0,0,1,.124.474l.309,1.34,1.175,5.174,4.308,19.4L348.45,292.6l-.495-.309,63.635-14.1.474-.1-.35.536-19.831-93.113.433.268-46.938,9.276-13.049,2.535-3.442.66Z" transform="translate(-146.742 -67.25)" fill="#263238"/>
        <path id="Path_186" data-name="Path 186" d="M322.5,153.019l18.573,11.936,1.938-4.04L324.644,150.38Z" transform="translate(-87.542 -40.466)" fill="#455a64"/>
        <path id="Path_187" data-name="Path 187" d="M300.65,206.509l18.573,11.936,1.958-4.061L302.794,203.87Z" transform="translate(-110.734 16.308)" fill="#455a64"/>
        <path id="Path_188" data-name="Path 188" d="M380.389,228.15a19.75,19.75,0,0,1-4.123,1.216c-2.515.639-6.019,1.464-9.895,2.329s-6.926,1.484-9.4,2.061l.247-.412a23.731,23.731,0,0,1,.845,4.7,23.749,23.749,0,0,1-1.484-4.556v-.33h.35c2.432-.618,5.731-1.381,9.338-2.185s7.38-1.587,9.936-2.061a19.793,19.793,0,0,1,4.185-.763Z" transform="translate(-116.015 -21.557)" fill="#263238"/>
        <rect id="Rectangle_29" data-name="Rectangle 29" width="63.965" height="89.259" transform="translate(184.604 66.467) rotate(-80.56)" fill="#ebebeb"/>
        <path id="Path_189" data-name="Path 189" d="M345.16,172.016h.783l2.061.247,7.957.989-.268.206,1.67-12.925v-.33h.33l7.833.928h.371v.371l-1.525,13.049-.35-.474,11.132,1.608-.495.392,1.319-11.791,1.01-8.988.124.35-13.729-14.017h.515l-16.141,10.925.144-.227-1.9,14.265-.557,3.937a13.273,13.273,0,0,1-.247,1.4,9.527,9.527,0,0,1,0-1.319l.392-3.875,1.587-14.43v-.144h.124l16.079-11.07.289-.186.247.247,13.914,14.1.144.144v.206l-1.01,8.988-1.34,11.791v.454h-.453l-11.111-1.649h-.412v-.412l1.608-13.028.33.412-7.833-1.01.371-.289-1.876,12.9v.247H356l-8.06-1.278-2.061-.35Z" transform="translate(-128.136 -114.153)" fill="#263238"/>
        <path id="Path_190" data-name="Path 190" d="M331.05,187.463a5.734,5.734,0,0,1,.124-.969l.474-2.907,1.855-11.193,6.926-40.754v-.35h.35l80.869,13.069h.433v.845l-8.658,55.348v.412h-.412L353.622,191.3l-16.677-2.886-4.411-.763-1.113-.206h.041l1.175.165,4.494.8,16.883,2.6,58.894,9.235-.474.35,8.617-55.472v-.412l.371.515-80.765-13.193.412-.289-7.256,40.465-2.061,11.235-.557,2.968A5.223,5.223,0,0,1,331.05,187.463Z" transform="translate(-143.113 -124.364)" fill="#263238"/>
        <path id="Path_191" data-name="Path 191" d="M301.362,111.036,316.72,99.884l-2.639-2.824L299.94,108.5Z" transform="translate(-111.487 -97.06)" fill="#455a64"/>
        <path id="Path_192" data-name="Path 192" d="M337.393,145.236l15.337-11.152-2.639-2.824L335.95,142.7Z" transform="translate(-73.266 -60.76)" fill="#455a64"/>
        <path id="Path_193" data-name="Path 193" d="M374.773,137.53A85.568,85.568,0,0,1,373.33,149.9c-.495,3.154-.969,6.019-1.381,8.143l-.289-.371a17.623,17.623,0,0,1,4.123.845,17.606,17.606,0,0,1-4.123-.186h-.33v-.35c.268-2.061.66-5.03,1.154-8.246a85.557,85.557,0,0,1,2.288-12.2Z" transform="translate(-100.359 -117.741)" fill="#263238"/>
      </g>
      <g id="Desk" transform="translate(443.002 416.797)">
        <path id="Path_194" data-name="Path 194" d="M260.5,311.45c-.309,1.69,0,267.528,0,267.528H248.71V311.45Z" transform="translate(-244.196 -149.878)" fill="#455a64"/>
        <path id="Path_195" data-name="Path 195" d="M359.591,322.79c-.309,1.69,0,243.7,0,243.7H347.8V322.79Z" transform="translate(-139.022 -137.841)" fill="#455a64"/>
        <path id="Path_196" data-name="Path 196" d="M388.381,301.25c-.309,1.69,0,288.1,0,288.1H376.59V301.25Z" transform="translate(-108.464 -160.704)" fill="#455a64"/>
        <path id="Path_197" data-name="Path 197" d="M385.834,263.011c.948-1.587,0,86.579,0,86.579l-10.884,1.67,2.577-87.135Z" transform="translate(-110.205 -201.313)" fill="#455a64"/>
        <path id="Path_198" data-name="Path 198" d="M459.147,418.945c-.8,2.453,87.712-162.005,87.712-162.005l-1.629-7.421L329.959,237.15l-81.9,155.78Z" transform="translate(-244.885 -228.74)" fill="#263238"/>
        <path id="Path_199" data-name="Path 199" d="M459.833,417.4c-.206-4.123,86.97-164.17,86.97-164.17L327.079,233.07,246.52,390.787Z" transform="translate(-246.52 -233.07)" fill="#455a64"/>
        <path id="Path_200" data-name="Path 200" d="M289.338,335.96l75.777,7.9L413.7,221.14,304.716,207.72,250.11,331.074Z" transform="translate(-178.064 -196.341)" fill="#f5f5f5"/>
        <path id="Path_201" data-name="Path 201" d="M355.968,254.464a11.4,11.4,0,0,1,1.793.474,18.08,18.08,0,0,1,4.741,2.453,20.779,20.779,0,0,1,5.751,6.184,18.779,18.779,0,0,1,2.783,10.8,21.191,21.191,0,0,1-4.989,12.533,17.293,17.293,0,0,1-6.04,4.659c-2.391,1.113-4.927,1.917-7.5,2.824-1.278.453-2.577.928-3.855,1.443-.639.268-1.278.557-1.9.845l-.928.474a4.254,4.254,0,0,0-.721.618,14.823,14.823,0,0,0-2.412,3.422c-.66,1.237-1.031,2.68-1.752,4.123a7.978,7.978,0,0,1-3.071,3.546,8.247,8.247,0,0,1-4.721.66l-9.3-1.093c-1.567-.206-3.133-.433-4.679-.742a9.627,9.627,0,0,1-4.432-1.917,2.741,2.741,0,0,1-.928-2.432,8.536,8.536,0,0,1,.845-2.247c.68-1.381,1.4-2.68,2.061-3.978l2.061-3.875.495-.969.247-.474a.927.927,0,0,0,0-.371,7.05,7.05,0,0,0-.289-2.061c-.7-2.742-1.67-5.38-2.206-8.1a20.882,20.882,0,0,1,3.113-15.11,26.119,26.119,0,0,1,9.895-9.235,31.909,31.909,0,0,1,10.616-3.525,35.043,35.043,0,0,1,8.452,0c2.309.247,4.123.557,5.277.763l1.361.268.453.124h-.474l-1.381-.165c-1.216-.144-2.989-.392-5.277-.6a35.953,35.953,0,0,0-8.246.144,31.766,31.766,0,0,0-10.307,3.587,25.581,25.581,0,0,0-9.565,9.07,20.16,20.16,0,0,0-2.927,14.554c.536,2.639,1.5,5.257,2.226,8.06a7.648,7.648,0,0,1,.309,2.267,1.857,1.857,0,0,1-.185.68l-.247.495-.515.969-2.061,3.875c-.722,1.3-1.443,2.618-2.061,3.958a8.036,8.036,0,0,0-.763,2.061,1.855,1.855,0,0,0,.66,1.67,8.885,8.885,0,0,0,4,1.69c1.5.289,3.051.515,4.617.721l9.256,1.093a7.462,7.462,0,0,0,4.123-.557,7.132,7.132,0,0,0,2.721-3.154c.66-1.258,1.031-2.7,1.752-4.123a15.6,15.6,0,0,1,2.577-3.628,4.841,4.841,0,0,1,.907-.763l.969-.495c.639-.309,1.3-.6,1.958-.866,1.3-.536,2.618-1.01,3.917-1.443,2.577-.907,5.133-1.69,7.442-2.762a16.49,16.49,0,0,0,5.793-4.432,20.614,20.614,0,0,0,4.927-12.1,18.347,18.347,0,0,0-2.577-10.513,20.8,20.8,0,0,0-5.524-6.184,19.3,19.3,0,0,0-4.6-2.556A13.012,13.012,0,0,1,355.968,254.464Z" transform="translate(-175.121 -211.772)" fill="#e8505b"/>
        <path id="Path_202" data-name="Path 202" d="M343.889,278.318a12.806,12.806,0,0,1-.886,2.268c-.618,1.422-1.546,3.484-2.6,6.06-.536,1.278-1.072,2.7-1.629,4.246a12.08,12.08,0,0,1-2.577,4.7,10.8,10.8,0,0,1-5.359,2.577,23.376,23.376,0,0,1-12.492-.721,14.244,14.244,0,0,1-5.195-2.845,6.37,6.37,0,0,1-2.061-4.947,11.358,11.358,0,0,1,1.608-4.391l3.133-5.813a12.618,12.618,0,0,1,1.258-2.061,12.619,12.619,0,0,1-.948,2.226l-2.886,5.957a11.028,11.028,0,0,0-1.422,4.123A5.628,5.628,0,0,0,313.9,294a13.667,13.667,0,0,0,4.906,2.618,22.984,22.984,0,0,0,12.018.68,10.1,10.1,0,0,0,4.968-2.329,11.564,11.564,0,0,0,2.474-4.37c.577-1.546,1.175-2.948,1.752-4.226,1.134-2.556,2.061-4.576,2.865-5.957A12.371,12.371,0,0,1,343.889,278.318Z" transform="translate(-177.988 -186.029)" fill="#e8505b"/>
        <path id="Path_203" data-name="Path 203" d="M339.671,282.423a18.328,18.328,0,0,1-4.123.1c-2.494,0-5.937-.165-9.73-.371s-7.236-.412-9.709-.639a18.3,18.3,0,0,1-4.02-.515,18.082,18.082,0,0,1,4.123-.1c2.494,0,5.937.165,9.75.371s7.236.412,9.73.639a18.076,18.076,0,0,1,3.979.515Z" transform="translate(-176.924 -182.383)" fill="#e8505b"/>
        <ellipse id="Ellipse_101" data-name="Ellipse 101" cx="0.454" cy="13.193" rx="0.454" ry="13.193" transform="translate(132.197 104.595) rotate(-90)" fill="#e8505b"/>
        <path id="Path_204" data-name="Path 204" d="M324.535,288.2a2.923,2.923,0,0,1-1.2,1.711,7.029,7.029,0,0,1-4.844,1.2,7.629,7.629,0,0,1-2.742-.6,3.03,3.03,0,0,1-1.649-1.732,2.061,2.061,0,0,1,0-1.608c.186-.35.371-.453.412-.433a2.844,2.844,0,0,0,.144,1.793c.433,1.051,2.061,1.608,3.855,1.67a7.545,7.545,0,0,0,4.432-.825C324.019,288.8,324.37,288.122,324.535,288.2Z" transform="translate(-174.96 -176.106)" fill="#e8505b"/>
        <path id="Path_205" data-name="Path 205" d="M325.553,292.2a10.72,10.72,0,0,1,1.01-2.061l3.01-5.277,4.576-7.771a10.514,10.514,0,0,0,2.061-4.6,3.525,3.525,0,0,0-3.36-3.175,6.184,6.184,0,0,0-4.762,2.061,27.76,27.76,0,0,0-3.154,4.123,88.741,88.741,0,0,0-4.576,7.73c-1.2,2.268-2.061,4.123-2.659,5.442a11.949,11.949,0,0,1-.99,2.061,9.714,9.714,0,0,1,.68-2.061c.495-1.34,1.3-3.278,2.432-5.607a77.427,77.427,0,0,1,4.452-7.9,27.444,27.444,0,0,1,3.237-4.35,7.071,7.071,0,0,1,5.442-2.309,4.391,4.391,0,0,1,4.123,4.123,5.69,5.69,0,0,1-.825,2.783c-.453.8-.907,1.525-1.361,2.247l-4.741,7.668-3.257,5.133A10.721,10.721,0,0,1,325.553,292.2Z" transform="translate(-172.021 -195.456)" fill="#e8505b"/>
        <ellipse id="Ellipse_102" data-name="Ellipse 102" cx="0.454" cy="5.401" rx="0.454" ry="5.401" transform="translate(157.177 63.039) rotate(-5.43)" fill="#e8505b"/>
        <path id="Path_206" data-name="Path 206" d="M322.8,263.484a1.087,1.087,0,0,0,.206.6c.206.268.453.392.721.144s.165-.536-.124-.722-.515-.124-.6-.227.144-.474.763-.392a1.134,1.134,0,0,1,.866.639A1.237,1.237,0,0,1,323,265.133a1.134,1.134,0,0,1-.618-.866C322.321,263.628,322.734,263.4,322.8,263.484Z" transform="translate(-166.006 -201.436)" fill="#e8505b"/>
        <path id="Path_207" data-name="Path 207" d="M337.325,265.77A35.5,35.5,0,0,1,326.07,273.4,96.9,96.9,0,0,1,337.325,265.77Z" transform="translate(-162.086 -198.362)" fill="#e8505b"/>
        <path id="Path_208" data-name="Path 208" d="M332.232,265.3a.84.84,0,0,1,1.031-.309,1.237,1.237,0,0,1,.845,1.031,1.4,1.4,0,0,1-.783,1.464,1.443,1.443,0,0,1-1.629-.33,1.175,1.175,0,0,1-.186-1.361.783.783,0,0,1,.825-.392c.227,0,.268.186.247.227s-.433,0-.515.433a.557.557,0,0,0,.206.515.681.681,0,0,0,.68,0,.639.639,0,0,0,.33-.577.618.618,0,0,0-.289-.536C332.665,265.325,332.294,265.407,332.232,265.3Z" transform="translate(-156.457 -199.237)" fill="#e8505b"/>
        <ellipse id="Ellipse_103" data-name="Ellipse 103" cx="0.454" cy="8.905" rx="0.454" ry="8.905" transform="translate(158.167 63.044) rotate(-78.04)" fill="#e8505b"/>
        <ellipse id="Ellipse_104" data-name="Ellipse 104" cx="3.752" cy="0.454" rx="3.752" ry="0.454" transform="translate(113.545 89.768) rotate(-22.78)" fill="#263238"/>
        <ellipse id="Ellipse_105" data-name="Ellipse 105" cx="43.825" cy="0.454" rx="43.825" ry="0.454" transform="translate(105.256 114.178) rotate(-66.23)" fill="#263238"/>
        <ellipse id="Ellipse_106" data-name="Ellipse 106" cx="46.093" cy="0.454" rx="46.093" ry="0.454" transform="translate(139.345 121.12) rotate(-66.23)" fill="#263238"/>
        <ellipse id="Ellipse_107" data-name="Ellipse 107" cx="0.453" cy="31.416" rx="0.453" ry="31.416" transform="translate(103.126 110.112) rotate(-82.86)" fill="#263238"/>
        <path id="Path_209" data-name="Path 209" d="M363.607,283.7a13.094,13.094,0,0,1-2.474-.124l-6.7-.7c-5.648-.618-13.461-1.546-22.057-2.639s-16.491-2.061-22.036-2.886l-6.658-.969a13.092,13.092,0,0,1-2.432-.474,13.108,13.108,0,0,1,2.474.124l6.7.7c5.648.618,13.461,1.546,22.057,2.639s16.491,2.061,22.036,2.886l6.658.969a13.127,13.127,0,0,1,2.432.474Z" transform="translate(-188.43 -187.617)" fill="#263238"/>
        <path id="Path_210" data-name="Path 210" d="M375.26,258.789a13.1,13.1,0,0,1-2.474-.124l-6.7-.7c-5.648-.618-13.461-1.546-22.057-2.639s-16.491-2.061-22.036-2.886l-6.741-.99a13.11,13.11,0,0,1-2.432-.474,13.086,13.086,0,0,1,2.474.124l6.7.7c5.648.618,13.461,1.546,22.057,2.639s16.491,2.061,22.036,2.886l6.658.969a13.15,13.15,0,0,1,2.515.495Z" transform="translate(-176.149 -214.078)" fill="#263238"/>
        <ellipse id="Ellipse_108" data-name="Ellipse 108" cx="3.257" cy="0.454" rx="3.257" ry="0.454" transform="matrix(0.87, -0.494, 0.494, 0.87, 137.169, 38.213)" fill="#263238"/>
        <ellipse id="Ellipse_109" data-name="Ellipse 109" cx="4.37" cy="0.454" rx="4.37" ry="0.454" transform="translate(103.359 111.387) rotate(-23.12)" fill="#263238"/>
        <path id="Path_211" data-name="Path 211" d="M317.916,291.337a11.791,11.791,0,0,1,.433-2.865l.309.495a20.662,20.662,0,0,1-2.721-.33l.495-.309h0c-.309.99-.618,1.917-.907,2.7l-.309-.495a11.4,11.4,0,0,1,2.7.763c0,.124-.969.165-2.8,0h-.433l.124-.454c.206-.8.474-1.732.783-2.742h0l.124-.371h.371c.99.144,1.917.289,2.7.454h.453l-.144.412C318.473,290.492,317.978,291.482,317.916,291.337Z" transform="translate(-174.175 -175.054)" fill="#263238"/>
        <path id="Path_212" data-name="Path 212" d="M319.11,321.313l87.712-52.153H347.578Z" transform="translate(-104.828 -131.129)" fill="#263238"/>
        <path id="Path_213" data-name="Path 213" d="M320.85,212.269,340,235.79l3.669-7.091L328.6,209.94Z" transform="translate(-102.981 -193.985)" fill="#263238"/>
        <path id="Path_214" data-name="Path 214" d="M401.7,274.52v-9.256l-53.617-1.154L323.94,308.677Z" transform="translate(-99.701 -136.489)" fill="#263238"/>
      </g>
      <g id="Character" transform="translate(440.171 387.841)">
        <rect id="Rectangle_30" data-name="Rectangle 30" width="9.421" height="168.663" transform="translate(62.983 350.925)" fill="#455a64"/>
        <path id="Path_215" data-name="Path 215" d="M385.917,396.411c0,12.368-31.127,22.49-69.531,22.49s-69.531-10.08-69.531-22.49c0-3.9-1.793-12.08.763-19.872,4.288-13.028,42.382-2.639,68.768-2.639,28.3,0,63.9-5.236,68.521,7.38C386.927,386.95,385.917,393.154,385.917,396.411Z" transform="translate(-243.983 -58.803)" fill="#263238"/>
        <ellipse id="Ellipse_110" data-name="Ellipse 110" cx="69.531" cy="22.49" rx="69.531" ry="22.49" transform="translate(2.872 298.586)" fill="#455a64"/>
        <path id="Path_216" data-name="Path 216" d="M280.18,429.945s52.689-3.607,55.1,69.861h-8.534s4.308-60.275-46.567-62.007v-6.514" transform="translate(-207.962 4.817)" fill="#455a64"/>
        <path id="Path_217" data-name="Path 217" d="M305.5,429.945s-52.689-3.607-55.1,69.861h8.534S254.626,439.53,305.5,437.8v-6.514" transform="translate(-239.571 4.817)" fill="#455a64"/>
        <rect id="Rectangle_31" data-name="Rectangle 31" width="83.219" height="9.627" transform="translate(107.872 69.771) rotate(-7.48)" fill="url(#linear-gradient-13)"/>
        <path id="Path_218" data-name="Path 218" d="M327.981,445.284,336,428.5,304.687,413.27l-12,24.407,1.876,1.072c8.41,4.679,43.083,23.211,49.721,24.263C351.687,464.248,327.981,445.284,327.981,445.284Z" transform="translate(-194.684 -12.851)" fill="url(#linear-gradient-14)"/>
        <g id="Group_12" data-name="Group 12" transform="translate(98.294 415.653)" opacity="0.3">
          <path id="Path_219" data-name="Path 219" d="M304.023,435.11a12.08,12.08,0,0,0-.742-8.617,11.729,11.729,0,0,0-6.184-5.834l-4.267,8.74Z" transform="translate(-292.83 -420.66)" fill="url(#linear-gradient-15)"/>
        </g>
        <path id="Path_220" data-name="Path 220" d="M339.3,442.744s8.019,7.215,6.184,8.246-37.662-16.491-52.751-25.5l.392-.68,41.517,20.614S337.442,441.919,339.3,442.744Z" transform="translate(-194.642 -0.602)" opacity="0.3" fill="url(#linear-gradient-16)"/>
        <path id="Path_221" data-name="Path 221" d="M292.65,424.66l.515.33,1.5.845,5.566,3.01c4.721,2.515,11.3,5.9,18.553,9.482s14.059,6.679,18.944,8.843l5.813,2.536,1.587.66.557.206-.536-.289-1.567-.742-5.751-2.659c-4.844-2.247-11.544-5.38-18.882-8.946s-13.914-6.926-18.676-9.359l-5.628-2.886-1.546-.783Z" transform="translate(-194.727 -0.762)" fill="url(#linear-gradient-17)"/>
        <path id="Path_222" data-name="Path 222" d="M312.91,436.774a9.194,9.194,0,0,1,5.38-3.443A5.628,5.628,0,0,0,312.91,436.774Z" transform="translate(-173.223 8.439)" fill="url(#linear-gradient-18)"/>
        <ellipse id="Ellipse_111" data-name="Ellipse 111" cx="1.711" cy="0.206" rx="1.711" ry="0.206" transform="translate(132.613 435.983) rotate(-31.63)" fill="url(#linear-gradient-19)"/>
        <ellipse id="Ellipse_112" data-name="Ellipse 112" cx="1.464" cy="0.206" rx="1.464" ry="0.206" transform="matrix(0.961, -0.275, 0.275, 0.961, 130.748, 433.404)" fill="url(#linear-gradient-20)"/>
        <ellipse id="Ellipse_113" data-name="Ellipse 113" cx="0.206" cy="1.814" rx="0.206" ry="1.814" transform="matrix(0.448, -0.894, 0.894, 0.448, 130.613, 430.09)" fill="url(#linear-gradient-21)"/>
        <path id="Path_223" data-name="Path 223" d="M308.77,426.39a5.014,5.014,0,0,0,1.567,1.422,3.524,3.524,0,0,0,2.061.66q-1.8-1.007-3.566-2.061Z" transform="translate(-177.617 1.075)" fill="url(#linear-gradient-22)"/>
        <path id="Path_224" data-name="Path 224" d="M310.7,430.214a6.452,6.452,0,0,0,2.061.969,13.088,13.088,0,0,0,2.371.577,6.513,6.513,0,0,0,1.464,0,1.216,1.216,0,0,0,.8-.392.886.886,0,0,0,0-.948,4.123,4.123,0,0,0-5.092-1.134,4,4,0,0,0-1.319,1.031c-.247.309-.33.495-.309.515a6.331,6.331,0,0,1,1.752-1.278,4.124,4.124,0,0,1,2.268-.289,3.463,3.463,0,0,1,2.309,1.34c.206.392,0,.7-.557.742a6.686,6.686,0,0,1-1.361,0,15.417,15.417,0,0,1-2.329-.474C311.506,430.523,310.743,430.152,310.7,430.214Z" transform="translate(-175.591 3.682)" fill="url(#linear-gradient-23)"/>
        <path id="Path_225" data-name="Path 225" d="M311.556,432.2a2.207,2.207,0,0,0,.907-1.278,3.67,3.67,0,0,0,.165-1.732,2.247,2.247,0,0,0-1.175-1.835.886.886,0,0,0-1.072.618,2.454,2.454,0,0,0,0,1.072,6.766,6.766,0,0,0,.35,1.67,3.237,3.237,0,0,0,.763,1.381,14.143,14.143,0,0,1-.474-1.463,7.81,7.81,0,0,1-.247-1.608c0-.557.124-1.422.66-1.257s.8.948.907,1.5a3.691,3.691,0,0,1,0,1.587A8.249,8.249,0,0,1,311.556,432.2Z" transform="translate(-175.97 2.069)" fill="url(#linear-gradient-24)"/>
        <path id="Path_226" data-name="Path 226" d="M295,420.66a12.553,12.553,0,0,1,2.268,1.216,10.9,10.9,0,0,1,5.009,10.534c-.186,1.567-.577,2.494-.495,2.515a2.063,2.063,0,0,0,.309-.639,9.152,9.152,0,0,0,.474-1.855,10.575,10.575,0,0,0-5.153-10.822,9.171,9.171,0,0,0-1.752-.8A2.063,2.063,0,0,0,295,420.66Z" transform="translate(-192.232 -5.007)" fill="url(#linear-gradient-25)"/>
        <ellipse id="Ellipse_114" data-name="Ellipse 114" cx="7.153" cy="0.206" rx="7.153" ry="0.206" transform="translate(105.731 416.908) rotate(-63.31)" fill="url(#linear-gradient-26)"/>
        <path id="Path_227" data-name="Path 227" d="M300.89,427.123A28.61,28.61,0,0,0,310,431.658c0-.124-2.061-.99-4.576-2.247S300.952,427.02,300.89,427.123Z" transform="translate(-185.981 1.846)" fill="url(#linear-gradient-27)"/>
        <path id="Path_228" data-name="Path 228" d="M297.948,425.671c-.124,0,0,.515,0,1.093s-.1,1.051,0,1.093.412-.412.412-1.072S298.113,425.63,297.948,425.671Z" transform="translate(-189.161 0.309)" fill="url(#linear-gradient-28)"/>
        <ellipse id="Ellipse_115" data-name="Ellipse 115" cx="0.207" cy="0.93" rx="0.207" ry="0.93" transform="matrix(0.948, -0.319, 0.319, 0.948, 109.49, 423.998)" fill="url(#linear-gradient-29)"/>
        <path id="Path_229" data-name="Path 229" d="M296.18,422.337c0,.124.392.309.763.7s.6.783.7.763,0-.6-.412-1.051S296.2,422.213,296.18,422.337Z" transform="translate(-190.98 -3.283)" fill="url(#linear-gradient-30)"/>
        <ellipse id="Ellipse_116" data-name="Ellipse 116" cx="0.206" cy="0.557" rx="0.206" ry="0.557" transform="translate(103.007 417.453) rotate(-42.85)" fill="url(#linear-gradient-31)"/>
        <path id="Path_230" data-name="Path 230" d="M327.8,455.143l10.08-15.625L308.716,420.47,293.73,443.145l1.732,1.3c7.751,5.71,39.806,28.468,46.258,30.344C348.914,476.911,327.8,455.143,327.8,455.143Z" transform="translate(-193.58 -5.209)" fill="url(#linear-gradient-32)"/>
        <g id="Group_13" data-name="Group 13" transform="translate(100.479 429.423)" opacity="0.3">
          <path id="Path_231" data-name="Path 231" d="M304.3,442.553a12.08,12.08,0,0,0,.351-8.637,11.729,11.729,0,0,0-5.422-6.576l-5.339,8.143Z" transform="translate(-293.89 -427.34)" fill="url(#linear-gradient-33)"/>
        </g>
        <path id="Path_232" data-name="Path 232" d="M337.833,454.845s7.05,8.246,5.03,8.905S307.572,442.7,293.74,431.8l.474-.618L332.8,456.906S336.081,453.814,337.833,454.845Z" transform="translate(-193.57 6.159)" opacity="0.3" fill="url(#linear-gradient-34)"/>
        <path id="Path_233" data-name="Path 233" d="M293.75,431l.474.392,1.381,1.031,5.154,3.69c4.37,3.092,10.451,7.277,17.275,11.75s13.09,8.39,17.666,11.173l5.442,3.236,1.484.866.536.268-.495-.35-1.443-.928-5.36-3.36c-4.535-2.845-10.781-6.8-17.6-11.276s-12.925-8.617-17.336-11.647l-5.215-3.587-1.422-.969Z" transform="translate(-193.559 5.968)" fill="url(#linear-gradient-35)"/>
        <path id="Path_234" data-name="Path 234" d="M312.54,445.319a9.194,9.194,0,0,1,5.772-2.721,5.628,5.628,0,0,0-5.772,2.721Z" transform="translate(-173.615 18.199)" fill="url(#linear-gradient-36)"/>
        <ellipse id="Ellipse_117" data-name="Ellipse 117" cx="1.711" cy="0.206" rx="1.711" ry="0.206" transform="translate(133.152 453.269) rotate(-24.39)" fill="url(#linear-gradient-37)"/>
        <ellipse id="Ellipse_118" data-name="Ellipse 118" cx="1.465" cy="0.206" rx="1.465" ry="0.206" transform="matrix(0.989, -0.15, 0.15, 0.989, 131.072, 453.058)" fill="url(#linear-gradient-38)"/>
        <ellipse id="Ellipse_119" data-name="Ellipse 119" cx="0.206" cy="1.814" rx="0.206" ry="1.814" transform="matrix(0.557, -0.83, 0.83, 0.557, 131.867, 447.259)" fill="url(#linear-gradient-39)"/>
        <path id="Path_235" data-name="Path 235" d="M309.52,434.774a5.054,5.054,0,0,0,1.381,1.608,3.526,3.526,0,0,0,1.9.907,19.655,19.655,0,0,0-1.649-1.257C310.262,435.33,309.623,434.691,309.52,434.774Z" transform="translate(-176.821 9.965)" fill="url(#linear-gradient-40)"/>
        <path id="Path_236" data-name="Path 236" d="M311.022,438.559a6.452,6.452,0,0,0,1.876,1.216,13.089,13.089,0,0,0,2.288.866,6.508,6.508,0,0,0,1.443.268,1.216,1.216,0,0,0,.845-.268.887.887,0,0,0,.206-.928,4.123,4.123,0,0,0-4.906-1.773,4,4,0,0,0-1.422.845c-.289.268-.392.454-.371.474a6.328,6.328,0,0,1,1.9-1.031,4.121,4.121,0,0,1,2.288,0,3.463,3.463,0,0,1,2.062,1.608c.144.412-.186.68-.66.66a6.69,6.69,0,0,1-1.34-.247,15.428,15.428,0,0,1-2.247-.763A11.319,11.319,0,0,0,311.022,438.559Z" transform="translate(-175.273 13.086)" fill="url(#linear-gradient-41)"/>
        <path id="Path_237" data-name="Path 237" d="M311.678,440.886a2.615,2.615,0,0,0,1.072-1.154,3.67,3.67,0,0,0,.392-1.711,2.247,2.247,0,0,0-.928-2.061.886.886,0,0,0-1.134.495,2.452,2.452,0,0,0-.227,1.051,6.781,6.781,0,0,0,.144,1.711,3.216,3.216,0,0,0,.577,1.464s-.144-.577-.289-1.5a7.842,7.842,0,0,1,0-1.629c0-.557.289-1.381.825-1.175s.68,1.051.721,1.608a3.691,3.691,0,0,1-.268,1.567A8.254,8.254,0,0,1,311.678,440.886Z" transform="translate(-175.412 11.171)" fill="url(#linear-gradient-42)"/>
        <path id="Path_238" data-name="Path 238" d="M296.57,427.35a12.836,12.836,0,0,1,2.061,1.484,10.9,10.9,0,0,1,3.649,11.07c-.371,1.546-.886,2.412-.8,2.432a2.062,2.062,0,0,0,.392-.577,9.15,9.15,0,0,0,.7-1.773,10.575,10.575,0,0,0-3.752-11.379,9.172,9.172,0,0,0-1.629-1.01A2.061,2.061,0,0,0,296.57,427.35Z" transform="translate(-190.566 2.094)" fill="url(#linear-gradient-43)"/>
        <ellipse id="Ellipse_120" data-name="Ellipse 120" cx="7.153" cy="0.206" rx="7.153" ry="0.206" transform="translate(108.815 431.108) rotate(-56.06)" fill="url(#linear-gradient-44)"/>
        <path id="Path_239" data-name="Path 239" d="M301.62,434.513a28.59,28.59,0,0,0,8.452,5.648c0-.1-1.917-1.237-4.246-2.8S301.7,434.41,301.62,434.513Z" transform="translate(-185.206 9.69)" fill="url(#linear-gradient-45)"/>
        <path id="Path_240" data-name="Path 240" d="M299.044,432.69c-.124,0-.1.515-.206,1.072s-.247,1.01-.124,1.072.454-.371.557-1.01S299.147,432.67,299.044,432.69Z" transform="translate(-188.34 7.761)" fill="url(#linear-gradient-46)"/>
        <ellipse id="Ellipse_121" data-name="Ellipse 121" cx="0.206" cy="0.928" rx="0.206" ry="0.928" transform="matrix(0.98, -0.197, 0.197, 0.98, 110.062, 436.471)" fill="url(#linear-gradient-47)"/>
        <path id="Path_241" data-name="Path 241" d="M297.55,429.16c0,.1.351.371.68.783s.495.866.618.845.144-.577-.268-1.113S297.591,429.057,297.55,429.16Z" transform="translate(-189.526 3.974)" fill="url(#linear-gradient-48)"/>
        <ellipse id="Ellipse_122" data-name="Ellipse 122" cx="0.206" cy="0.557" rx="0.206" ry="0.557" transform="translate(106.03 431.265) rotate(-35.6)" fill="url(#linear-gradient-49)"/>
        <path id="Path_242" data-name="Path 242" d="M265.87,397.029l29.4,18.944,1.793-2.762-29.4-19.5Z" transform="translate(-158.506 30.023)" opacity="0.2" fill="url(#linear-gradient-7)"/>
        <path id="Path_243" data-name="Path 243" d="M298.183,332.57,263.82,445.514l30.488,11.853,44.155-101.421Z" transform="translate(-160.681 -34.87)" fill="#263238"/>
        <path id="Path_244" data-name="Path 244" d="M280.786,421.673S400.1,391.948,403.356,390.5c0,0,13.3-38.548-14.615-53.143C362.17,323.468,273.88,370.489,273.88,370.489Z" transform="translate(-214.649 -96.145)" fill="#263238"/>
        <path id="Path_245" data-name="Path 245" d="M268.529,399.521c13.626,2.061,28.86,6.864,37.868,7.689,24.1,2.206,35.559-7.648,55.658-2.288.1-14.615-.99-41.7-.99-41.7L249.75,348.44S251.626,387.235,268.529,399.521Z" transform="translate(-240.261 -81.661)" fill="#263238"/>
        <path id="Path_246" data-name="Path 246" d="M422.068,397.029h0c3.216-5.978,5.607-13.11,4.267-19.892-2.68-13.5-18.821-14.986-35.7-17.027-37.909-4.576-87.135-11.07-87.135-11.07l9.214,55.225,44.9,3.257-61.388,94.7,43.763,29.354,79.755-130.651q.742-1.154,1.443-2.371Z" transform="translate(-190.938 -81.024)" fill="#263238"/>
        <path id="Path_247" data-name="Path 247" d="M380.165,358.773a20.06,20.06,0,0,1-3.071,0c-2.061-.124-4.824-.35-8.246-.68-7.029-.66-16.739-1.835-27.417-3.236s-20.367-2.659-27.375-3.484l-8.246-.969a20.108,20.108,0,0,1-3.03-.453,20.139,20.139,0,0,1,3.071,0c2.061.124,4.824.35,8.246.68,7.029.66,16.739,1.835,27.417,3.236s20.346,2.659,27.375,3.484l8.246.969a20.139,20.139,0,0,1,3.03.453Z" transform="translate(-183.975 -80.121)" fill="#455a64"/>
        <path id="Path_248" data-name="Path 248" d="M327.737,351.666c.124.206-.247.66-.721,1.134s-.969.8-1.175.66,0-.783.557-1.319S327.613,351.46,327.737,351.666Z" transform="translate(-159.582 -78.332)" fill="#455a64"/>
        <path id="Path_249" data-name="Path 249" d="M358,375a5.454,5.454,0,0,1-.577.99l-1.793,2.721-6.7,9.957c-5.648,8.41-13.4,20.057-21.707,33.085s-15.646,24.964-20.882,33.621l-6.184,10.307-1.711,2.783a5.463,5.463,0,0,1-.66.948,5.44,5.44,0,0,1,.495-1.031l1.567-2.865c1.381-2.474,3.4-6.04,5.957-10.41,5.112-8.761,12.368-20.738,20.614-33.786s16.161-24.737,21.954-32.982c2.886-4.123,5.277-7.5,6.947-9.792l1.938-2.618A5.445,5.445,0,0,1,358,375Z" transform="translate(-189.271 -53.47)" fill="#455a64"/>
        <path id="Path_250" data-name="Path 250" d="M346.324,378.9a40.912,40.912,0,0,1-6,0c-3.69-.1-8.8-.289-14.43-.618s-10.74-.825-14.43-1.319c-1.835-.247-3.319-.474-4.329-.66a5.625,5.625,0,0,1-1.567-.371,45.341,45.341,0,0,1,5.978.392c3.669.33,8.761.721,14.43,1.051s10.719.6,14.43.886A38.383,38.383,0,0,1,346.324,378.9Z" transform="translate(-181.014 -52.483)" fill="#455a64"/>
        <path id="Path_251" data-name="Path 251" d="M345.977,272s2.061-2.659,4.288-.948,12.368,9.853,12.368,9.853l6.885,18.553-9.792,17.872-16.9-7.256a79.667,79.667,0,0,1,3.69-12.245s-11.338-8.761-7.813-12.224c0,0,.948-1.69,5.751,2.288l4.8,3.978s-8.411-11.771-7.9-14.43h0a3.319,3.319,0,0,1,4.123-2.927h0Z" transform="translate(-146.571 -164.406)" fill="#ffbe9d"/>
        <path id="Path_252" data-name="Path 252" d="M336.73,273.47l6.968,1.773,30.261,26.8a2.659,2.659,0,0,1,.268,3.731h0a2.659,2.659,0,0,1-3.772.289L340.3,280.046Z" transform="translate(-147.94 -161.234)" fill="#e8505b"/>
        <path id="Path_253" data-name="Path 253" d="M352.84,291.123,356.159,287l1.134,1.134a2.639,2.639,0,0,1,.165,3.546h0a2.639,2.639,0,0,1-3.793.247Z" transform="translate(-130.841 -146.873)" fill="#fff" opacity="0.4"/>
        <path id="Path_254" data-name="Path 254" d="M337.29,275.121l1.175-1.381,4.741,1.2a1.587,1.587,0,0,1,0,1.608c-.453.6-1.34.1-1.34.1a1.876,1.876,0,0,1,0,1.732c-.412.618-1.484.35-1.484.35a.907.907,0,0,1-.124,1.36l-.433-.371Z" transform="translate(-147.346 -160.948)" fill="#fff" opacity="0.4"/>
        <path id="Path_255" data-name="Path 255" d="M340.224,275.16l30.1,25.211-1.567,2.061L338.74,277.283a1.423,1.423,0,0,0,1.525-.495A1.567,1.567,0,0,0,340.224,275.16Z" transform="translate(-145.807 -159.44)" opacity="0.4"/>
        <path id="Path_256" data-name="Path 256" d="M340.87,300.177a67.115,67.115,0,0,0,3.216-8.39c.371-2.061-3.236-15.6,2.185-16.677l1.752.825,4.494,21.768-8.988,8.658Z" transform="translate(-143.546 -159.493)" fill="#ffbe9d"/>
        <path id="Path_257" data-name="Path 257" d="M352.934,289.349c-.144,0-.453-1.257-1.381-3.154a17.667,17.667,0,0,0-5.03-6.308,20.179,20.179,0,0,1-3.628-2.948,4.926,4.926,0,0,1-1.34-3.71,3.236,3.236,0,0,1,1.34-2.309c.536-.35.928-.33.928-.289a7,7,0,0,0-.7.557,3.113,3.113,0,0,0-.928,2.061,4.452,4.452,0,0,0,1.319,3.113,22.858,22.858,0,0,0,3.545,2.783,16.059,16.059,0,0,1,5.071,6.761,7.546,7.546,0,0,1,.8,3.443Z" transform="translate(-142.83 -164.27)" fill="#eb996e"/>
        <path id="Path_258" data-name="Path 258" d="M351.08,293.974a9.11,9.11,0,0,1-.453-1.711c-.247-1.113-.742-2.68-1.257-4.659a26.807,26.807,0,0,1-.66-3.319c-.144-1.216-.227-2.494-.433-3.793a12.371,12.371,0,0,0-.454-1.958,11.416,11.416,0,0,0-.763-1.876.577.577,0,0,0-.557-.289,2.824,2.824,0,0,0-.907.309,3.608,3.608,0,0,0-1.422,1.443,8,8,0,0,0-.969,4.123,19.989,19.989,0,0,0,.515,4.123,16.494,16.494,0,0,1,.433,3.9,8.8,8.8,0,0,1-.907,3.319,13.356,13.356,0,0,0-1.587,4.453,10.862,10.862,0,0,0,0,1.732,2.7,2.7,0,0,1-.433-1.752,12.123,12.123,0,0,1,1.34-4.7,8.387,8.387,0,0,0,.742-3.113,16.491,16.491,0,0,0-.495-3.711,20.012,20.012,0,0,1-.577-4.267,8.741,8.741,0,0,1,1.072-4.618,5.98,5.98,0,0,1,.763-.99,3.2,3.2,0,0,1,1.031-.783,3.546,3.546,0,0,1,1.237-.392,1.484,1.484,0,0,1,1.34.66,10.821,10.821,0,0,1,.866,2.061,12.862,12.862,0,0,1,.454,2.061c.185,1.361.227,2.659.35,3.834a29,29,0,0,0,.536,3.257c.453,2.061.845,3.607.989,4.741a5.5,5.5,0,0,1,.206,1.917Z" transform="translate(-143.181 -159.145)" fill="#eb996e"/>
        <path id="Path_259" data-name="Path 259" d="M233.37,268.738l46.4-44.918,23.706,17.769-48.381,57.6Z" transform="translate(-193.001 -150.297)" fill="#e8505b"/>
        <path id="Path_260" data-name="Path 260" d="M233.37,268.738l46.4-44.918,23.706,17.769-48.381,57.6Z" transform="translate(-193.001 -150.297)" opacity="0.4"/>
        <path id="Path_261" data-name="Path 261" d="M314.619,257.542l21.026-2.762c-1.525-1.3-6.535-4.679-18.985-6.844C300.993,245.215,287.8,263,287.8,263l19.233,14.554,7.174-7.153s11.111-1.629,17.192-3.01a5.318,5.318,0,0,0,3.484-2.783h-.289C325.5,263.932,317.422,261.5,314.619,257.542Z" transform="translate(-199.874 -188.637)" fill="#ffbe9d"/>
        <path id="Path_262" data-name="Path 262" d="M310,258.829a14.863,14.863,0,0,1-9.874-7.545c.227-.165,1.938,2.061,4.659,4.123S310.169,258.582,310,258.829Z" transform="translate(-186.787 -184.791)" fill="#eb996e"/>
        <path id="Path_263" data-name="Path 263" d="M264.127,235.5l-.247,82.064,35.209,1.67,1.01-19.954s12.513,2.474,15.728-9.132c2.061-7.421,1.546-64.748,1.546-64.748Z" transform="translate(-225.263 -212.255)" fill="#ffbe9d"/>
        <path id="Path_264" data-name="Path 264" d="M324.788,219.449c-10.719,3.463-13.3,4.618-18.1,5.009s-37.414.392-40.383,18.779l-.227,2.247h0s-7.029-2.845-5.195,9.874c.969,6.638,3.69,12.76,6.184,20.057,1.732,10.8-4.432,13.5-9.5,17.068-1.237.886-2.762,2.061-2.556,3.5s1.732,2.061,3.113,2.329a11.564,11.564,0,0,0,8.472-2.061,45.616,45.616,0,0,1-2.412,4.6,3.669,3.669,0,0,0,.928,4.659,4,4,0,0,0,2.8.124,14.223,14.223,0,0,0,7.359-4.411,3.133,3.133,0,0,0,1.2,3.979,7.545,7.545,0,0,0,4.411.969c6.968-.124,15.357,0,21.768-7.132,5.937-6.6,7.339-10.822,7.978-19.975,0,0-6.988-1.134-6.184-6.761,1.134-7.792,7.071-7.978,11.5-4.514l5.092-13.667s12.925-8.472,13.667-13.873S335.4,215.965,324.788,219.449Z" transform="translate(-234.698 -219.023)" fill="#263238"/>
        <path id="Path_265" data-name="Path 265" d="M377.8,376.412c-10.6-12.966-20.428-24.592-20.428-24.592.453,16.945,2.206,31.642,2.206,31.642l5.03,52.483a15.4,15.4,0,0,1-11.75,16.491c-32.982,7.957-71.407,10.2-92.969-4.6a20.882,20.882,0,0,1-8.926-17.254V385.791L245.3,325.7a97.051,97.051,0,0,1,2.556-28.179,39.167,39.167,0,0,1,35.332-27.911c11.894-.66,25.231-1.67,37.105-1.876a62.687,62.687,0,0,1,38.981,12.74c17.584,13.337,30.921,43.99,43.289,63.512l34.013-41.022,28.117,17.955-38.445,56.627a31.952,31.952,0,0,1-48.443-1.134Z" transform="translate(-245.147 -167.331)" fill="#e8505b"/>
        <ellipse id="Ellipse_123" data-name="Ellipse 123" cx="8.225" cy="0.454" rx="8.225" ry="0.454" transform="translate(25.213 141.696) rotate(-68.94)" fill="#263238"/>
        <ellipse id="Ellipse_124" data-name="Ellipse 124" cx="0.454" cy="6.349" rx="0.454" ry="6.349" transform="matrix(0.785, -0.619, 0.619, 0.785, 56.552, 151.755)" fill="#263238"/>
        <ellipse id="Ellipse_125" data-name="Ellipse 125" cx="5.442" cy="0.454" rx="5.442" ry="0.454" transform="translate(77.132 132.378) rotate(-17.74)" fill="#263238"/>
        <ellipse id="Ellipse_126" data-name="Ellipse 126" cx="6.596" cy="0.454" rx="6.596" ry="0.454" transform="translate(29.159 183.672) rotate(-65.4)" fill="#263238"/>
        <ellipse id="Ellipse_127" data-name="Ellipse 127" cx="0.454" cy="7.029" rx="0.454" ry="7.029" transform="translate(19.09 206.105) rotate(-34.37)" fill="#263238"/>
        <ellipse id="Ellipse_128" data-name="Ellipse 128" cx="8.287" cy="0.454" rx="8.287" ry="0.454" transform="translate(64.601 210.685) rotate(-21.29)" fill="#263238"/>
        <path id="Path_266" data-name="Path 266" d="M269.789,320.612a16.822,16.822,0,0,1,0-10.8q.011,5.4,0,10.8Z" transform="translate(-219.937 -122.663)" fill="#263238"/>
        <path id="Path_267" data-name="Path 267" d="M294.416,318.348a46.135,46.135,0,0,1-5.236-17.378c.247,0,1.154,3.917,2.618,8.7S294.643,318.245,294.416,318.348Z" transform="translate(-198.41 -132.046)" fill="#263238"/>
        <path id="Path_268" data-name="Path 268" d="M313.778,296.747a53.218,53.218,0,0,1-6.184-1.422,53.243,53.243,0,0,1-6.184-1.3,21.6,21.6,0,0,1,12.369,2.721Z" transform="translate(-185.429 -139.491)" fill="#263238"/>
        <ellipse id="Ellipse_129" data-name="Ellipse 129" cx="6.761" cy="0.454" rx="6.761" ry="0.454" transform="translate(130.311 183.392) rotate(-17.38)" fill="#263238"/>
        <path id="Path_269" data-name="Path 269" d="M321.872,327.819a26.365,26.365,0,0,1,1.113-15.4c.247,0-.515,3.443-.8,7.668S322.14,327.777,321.872,327.819Z" transform="translate(-164.416 -119.893)" fill="#263238"/>
        <path id="Path_270" data-name="Path 270" d="M339.256,312.917c-.206.165-2.061-1.835-4.844-3.917s-5.133-3.443-5.03-3.69a19.171,19.171,0,0,1,9.874,7.586Z" transform="translate(-155.743 -127.439)" fill="#263238"/>
        <ellipse id="Ellipse_130" data-name="Ellipse 130" cx="7.627" cy="0.454" rx="7.627" ry="0.454" transform="translate(186.707 164.39) rotate(-29.38)" fill="#263238"/>
        <ellipse id="Ellipse_131" data-name="Ellipse 131" cx="7.875" cy="0.454" rx="7.875" ry="0.454" transform="translate(95.497 242.199) rotate(-71.99)" fill="#263238"/>
        <path id="Path_271" data-name="Path 271" d="M276.327,346.8a33.275,33.275,0,0,1-4.824-6c-1.649-2.309-2.989-4.37-3.649-5.5l-.845-1.484,1.175,1.175c.495.495.742.8.68.866s-.392-.124-.969-.515l.33-.309c.866.99,2.371,2.948,4,5.236a33.308,33.308,0,0,1,4.1,6.535Z" transform="translate(-221.941 -97.189)" fill="#263238"/>
        <ellipse id="Ellipse_132" data-name="Ellipse 132" cx="0.454" cy="8.431" rx="0.454" ry="8.431" transform="matrix(0.985, -0.174, 0.174, 0.985, 74.824, 247.499)" fill="#263238"/>
        <ellipse id="Ellipse_133" data-name="Ellipse 133" cx="0.454" cy="6.617" rx="0.454" ry="6.617" transform="translate(21.325 255.061) rotate(-43.73)" fill="#263238"/>
        <ellipse id="Ellipse_134" data-name="Ellipse 134" cx="6.019" cy="0.454" rx="6.019" ry="0.454" transform="translate(53.603 281.147)" fill="#263238"/>
        <ellipse id="Ellipse_135" data-name="Ellipse 135" cx="7.359" cy="0.454" rx="7.359" ry="0.454" transform="matrix(0.771, -0.637, 0.637, 0.771, 95.841, 272.473)" fill="#263238"/>
      </g>
      <g id="Plant" transform="translate(286.103 683.83)">
        <path id="Path_272" data-name="Path 272" d="M201.747,414.722a18.738,18.738,0,0,0-3.649-18.553,24.9,24.9,0,0,0-17.439-8.122,10.493,10.493,0,0,0-8.472,2.515,8.019,8.019,0,0,0-1.2,8.039,16.263,16.263,0,0,0,5.174,6.679c7.524,6.184,15.935,10.9,25.582,9.359" transform="translate(-170.407 -335.729)" fill="#e8505b"/>
        <path id="Path_273" data-name="Path 273" d="M193.12,420.632a43.867,43.867,0,0,1,27.911-28.859c3.36-1.093,7.627-1.546,9.915,1.134s1.154,6.844-.536,9.956a37.476,37.476,0,0,1-37.105,18.553" transform="translate(-146.299 -332.569)" fill="#e8505b"/>
        <path id="Path_274" data-name="Path 274" d="M193.12,420.632a43.867,43.867,0,0,1,27.911-28.859c3.36-1.093,7.627-1.546,9.915,1.134s1.154,6.844-.536,9.956a37.476,37.476,0,0,1-37.105,18.553" transform="translate(-146.299 -332.569)" fill="#fff" opacity="0.3"/>
        <path id="Path_275" data-name="Path 275" d="M203.944,362.61a21.975,21.975,0,0,0-12.987,11.276,38.8,38.8,0,0,0-3.814,17.13c-.227,11.42,4.638,23.6,10.307,33.518,10.575-6.988,14.677-21.109,16.306-28.406,2.577-11.523.227-33.931-9.812-33.5" transform="translate(-152.65 -362.61)" fill="#e8505b"/>
        <path id="Path_276" data-name="Path 276" d="M202.109,442.254a45.348,45.348,0,0,0,.227-5.731,80.393,80.393,0,0,0-4.432-21.088,40.341,40.341,0,0,0-12.368-17.522,26.4,26.4,0,0,0-5.628-3.381,7.379,7.379,0,0,0-2.288-.763,55.959,55.959,0,0,1,7.359,4.844,42.321,42.321,0,0,1,11.832,17.275,93.237,93.237,0,0,1,4.721,20.738" transform="translate(-162.751 -329.537)" fill="#263238"/>
        <path id="Path_277" data-name="Path 277" d="M189.734,466.661l1.237-10.7c1.031-9.029,2.453-21.5,4.226-35.25s3.546-26.18,4.844-35.167l1.525-10.657a23.419,23.419,0,0,0,.412-3.937,23.362,23.362,0,0,0-.886,3.855c-.495,2.494-1.154,6.184-1.917,10.6-1.525,8.967-3.443,21.377-5.236,35.044s-3.071,26.262-3.855,35.332c-.392,4.535-.68,8.246-.825,10.74" transform="translate(-150.396 -353.758)" fill="#263238"/>
        <path id="Path_278" data-name="Path 278" d="M222.455,396.47a7.919,7.919,0,0,0-2.226.557,18.55,18.55,0,0,0-2.536.948,30.929,30.929,0,0,0-3.236,1.5,46.178,46.178,0,0,0-7.771,5.112,49.308,49.308,0,0,0-13.811,17.975,46.157,46.157,0,0,0-2.948,8.823,30.939,30.939,0,0,0-.639,3.525,18.549,18.549,0,0,0-.247,2.68c0,1.484.33,1.917.412,1.917a73.894,73.894,0,0,1,1.34-7.9,51.532,51.532,0,0,1,3.133-8.555,52.112,52.112,0,0,1,13.5-17.563,51.516,51.516,0,0,1,7.462-5.236C219.425,397.686,222.538,396.717,222.455,396.47Z" transform="translate(-150.63 -326.671)" fill="#263238"/>
        <path id="Path_279" data-name="Path 279" d="M201.747,414.722a18.738,18.738,0,0,0-3.649-18.553,24.9,24.9,0,0,0-17.439-8.122,10.493,10.493,0,0,0-8.472,2.515,8.019,8.019,0,0,0-1.2,8.039,16.263,16.263,0,0,0,5.174,6.679c7.524,6.184,15.935,10.9,25.582,9.359" transform="translate(-170.407 -335.729)" opacity="0.2"/>
        <path id="Path_280" data-name="Path 280" d="M175,416.27h58.894v22a29.457,29.457,0,0,1-29.457,29.457h0A29.457,29.457,0,0,1,175,438.286Z" transform="translate(-165.532 -305.655)" fill="#455a64"/>
        <path id="Path_281" data-name="Path 281" d="M233.484,424a11.419,11.419,0,0,1-2.309,0l-6.184-.185c-5.3-.185-12.616-.412-20.614-.536s-15.4-.165-20.614-.165h-6.184a11.419,11.419,0,0,1-2.309-.124,11.409,11.409,0,0,1,2.288-.227c1.484,0,3.628-.185,6.184-.268,5.3-.165,12.636-.247,20.738,0s15.419.474,20.614.8c2.639.165,4.782.33,6.184.474a11.426,11.426,0,0,1,2.206.227Z" transform="translate(-165.245 -299.219)" fill="#263238"/>
        <path id="Path_282" data-name="Path 282" d="M233.474,425.625a11.432,11.432,0,0,1-2.309,0l-6.184-.185c-5.3-.185-12.616-.412-20.614-.536s-15.4-.165-20.614-.165h-6.184a11.435,11.435,0,0,1-2.309-.124,11.391,11.391,0,0,1,2.288-.227c1.484,0,3.628-.185,6.184-.268,5.3-.165,12.636-.247,20.738,0s15.419.474,20.614.8c2.639.165,4.782.33,6.184.474a11.421,11.421,0,0,1,2.206.227Z" transform="translate(-165.256 -297.489)" fill="#263238"/>
      </g>
    </g>
    <g id="gradient_circle-2" data-name="gradient circle" transform="translate(1018.76 165.76)">
      <g id="BACKGROUND-2" data-name="BACKGROUND" transform="translate(0 0)">
        <circle id="Ellipse_65-2" data-name="Ellipse 65" cx="32.62" cy="32.62" r="32.62" fill="url(#linear-gradient)"/>
      </g>
    </g>
  </g>
</svg>
