<svg xmlns="http://www.w3.org/2000/svg" xmlns:xlink="http://www.w3.org/1999/xlink" viewBox="0 0 281.28 388.86"><defs><style>.cls-1{isolation:isolate;}.cls-2{fill:url(#linear-gradient);}.cls-3{fill:url(#linear-gradient-2);}.cls-4,.cls-5,.cls-6,.cls-7{mix-blend-mode:screen;}.cls-4{fill:url(#linear-gradient-3);}.cls-5{fill:url(#linear-gradient-4);}.cls-6{fill:url(#linear-gradient-5);}.cls-7{fill:url(#linear-gradient-6);}</style><linearGradient id="linear-gradient" y1="194.44" x2="281.28" y2="194.44" gradientUnits="userSpaceOnUse"><stop offset="0" stop-color="#ffb75e"/><stop offset="0.01" stop-color="#feb559"/><stop offset="0.08" stop-color="#f9a93e"/><stop offset="0.16" stop-color="#f49f28"/><stop offset="0.25" stop-color="#f19817"/><stop offset="0.37" stop-color="#ef930c"/><stop offset="0.53" stop-color="#ed9005"/><stop offset="0.98" stop-color="#ed8f03"/></linearGradient><linearGradient id="linear-gradient-2" y1="194.43" x2="281.28" y2="194.43" gradientUnits="userSpaceOnUse"><stop offset="0" stop-color="#ffb75e"/><stop offset="0.21" stop-color="#fcb151"/><stop offset="0.59" stop-color="#f6a22f"/><stop offset="1" stop-color="#ed8f03"/></linearGradient><linearGradient id="linear-gradient-3" x1="153.91" y1="77.54" x2="197.17" y2="77.54" gradientUnits="userSpaceOnUse"><stop offset="0" stop-color="#414042"/><stop offset="1" stop-color="#231f20"/></linearGradient><linearGradient id="linear-gradient-4" x1="84.1" y1="311.31" x2="128.65" y2="311.31" xlink:href="#linear-gradient-3"/><linearGradient id="linear-gradient-5" y1="269.1" x2="169.29" y2="269.1" gradientUnits="userSpaceOnUse"><stop offset="0" stop-color="#808285"/><stop offset="1"/></linearGradient><linearGradient id="linear-gradient-6" x1="1946.44" y1="433.76" x2="2115.73" y2="433.76" gradientTransform="translate(2227.71 553.52) rotate(180)" xlink:href="#linear-gradient-5"/></defs><title>Bolt logo</title><g class="cls-1"><g id="Layer_2" data-name="Layer 2"><g id="Layer_1-2" data-name="Layer 1"><g id="_Group_" data-name="&lt;Group&gt;"><polygon id="_Path_" data-name="&lt;Path&gt;" class="cls-2" points="281.28 155.09 152.35 307.95 141.73 320.54 84.09 388.86 100.93 321.22 122.7 233.77 0 233.77 128.93 80.9 197.17 0.01 158.58 155.09 281.28 155.09"/><path id="_Path_2" data-name="&lt;Path&gt;" class="cls-3" d="M281.28,155.09,158.47,300.68,152.35,308l8.58-34.52a31.94,31.94,0,0,0-31-39.67H0L128.93,80.9l-8.6,34.52a32,32,0,0,0,31,39.67Z"/><polygon id="_Path_3" data-name="&lt;Path&gt;" class="cls-4" points="197.17 0 153.91 155.09 158.57 155.09 197.17 0"/><polygon id="_Path_4" data-name="&lt;Path&gt;" class="cls-5" points="84.1 388.86 128.65 233.77 122.7 233.77 84.1 388.86"/><path id="_Path_5" data-name="&lt;Path&gt;" class="cls-6" d="M166.93,278.47l-8.46,22.21L152.35,308l8.58-34.52a31.94,31.94,0,0,0-31-39.67H0l132.73-3.52A35.59,35.59,0,0,1,166.93,278.47Z"/><path id="_Path_6" data-name="&lt;Path&gt;" class="cls-7" d="M114.34,110.39l8.46-22.21,6.13-7.28-8.58,34.52a31.94,31.94,0,0,0,31,39.67H281.28l-132.73,3.52A35.59,35.59,0,0,1,114.34,110.39Z"/></g></g></g></g></svg>