<svg xmlns="http://www.w3.org/2000/svg" xmlns:xlink="http://www.w3.org/1999/xlink" viewBox="0 0 691.75 462.09"><defs><style>.cls-1{fill:url(#linear-gradient);}.cls-2{isolation:isolate;}.cls-3{opacity:0.5;}.cls-3,.cls-7{mix-blend-mode:multiply;}.cls-4{clip-path:url(#clip-path);}.cls-5{fill:url(#linear-gradient-3);}.cls-6{mix-blend-mode:color-dodge;fill:url(#linear-gradient-4);}.cls-7{fill:url(#linear-gradient-5);}.cls-8{fill:url(#linear-gradient-6);}.cls-9{fill:url(#linear-gradient-7);}.cls-10{opacity:0.15;fill:url(#linear-gradient-8);}</style><linearGradient id="linear-gradient" x1="559.5" y1="93.16" x2="139.42" y2="330.99" gradientUnits="userSpaceOnUse"><stop offset="0" stop-color="#fd0"/><stop offset="1" stop-color="#fbb034"/></linearGradient><clipPath id="clip-path"><path id="_Clipping_Path_" data-name="&lt;Clipping Path&gt;" class="cls-1" d="M109.29,228.66C232.07,266.91,262.63,402.79,358,355s98.15,43.26,182.18-8.62,60.94-224.86-86.89-218.15c-63.46,2.88-151.93,95.09-206.32,26.88C126.72,4.24-13.07,190.55,109.29,228.66Z"/></clipPath><linearGradient id="linear-gradient-3" x1="210.85" y1="344.65" x2="496.51" y2="47.36" xlink:href="#linear-gradient"/><linearGradient id="linear-gradient-4" x1="431.23" y1="577.31" x2="500.68" y2="193.31" xlink:href="#linear-gradient"/><linearGradient id="linear-gradient-5" x1="361.65" y1="372.49" x2="286.39" y2="266.79" xlink:href="#linear-gradient"/><linearGradient id="linear-gradient-6" x1="413.59" y1="287.22" x2="215.45" y2="399.39" xlink:href="#linear-gradient"/><linearGradient id="linear-gradient-7" x1="354.59" y1="266.42" x2="378.26" y2="417.57" xlink:href="#linear-gradient"/><linearGradient id="linear-gradient-8" x1="521.11" y1="82.52" x2="334.88" y2="256.49" gradientUnits="userSpaceOnUse"><stop offset="0.11" stop-color="#fd0" stop-opacity="0.5"/><stop offset="0.32" stop-color="#fed30b" stop-opacity="0.61"/><stop offset="0.78" stop-color="#fcba28" stop-opacity="0.89"/><stop offset="0.96" stop-color="#fbb034"/></linearGradient></defs><title>temp</title><g class="cls-2"><g id="Layer_2" data-name="Layer 2"><g id="BACKGROUND"><g class="cls-3"><path id="_Clipping_Path_2" data-name="&lt;Clipping Path&gt;" class="cls-1" d="M109.29,228.66C232.07,266.91,262.63,402.79,358,355s98.15,43.26,182.18-8.62,60.94-224.86-86.89-218.15c-63.46,2.88-151.93,95.09-206.32,26.88C126.72,4.24-13.07,190.55,109.29,228.66Z"/><g class="cls-4"><rect class="cls-5" width="640.03" height="462.09"/><path class="cls-6" d="M349.12,167.37c75-26.88,60.94,92.08,104.64,110,31.91,13.06,34.82-22.08,77.67-20.74s49.67,52.08,26.34,75.73l55.31,10.37S690.7,260,691.72,243.63,670.27,97,670.27,97L551.8,22S445.75,29.17,430.35,33.25,369.08,57.76,349.12,68,320,85.34,320,85.34"/><path class="cls-7" d="M221.87,303.1s23.7,27.86,79.28,43.66,71.09-86.31,71.09-86.31c-21.4-5-29.47,3.12-46.94,37.2-24.15,47.11-58.91,40.21-103.43,5.46"/><path class="cls-8" d="M206.17,288.15c40.26,42.1,92.68,65,115.66,35,17.67-23.05,22.84-68.29,50.41-62.69,32,6.49-3.95,66.9,52.32,81.6l5.79,52.18L298.57,460.88,197.75,365.06l-5.17-27.71"/><path class="cls-9" d="M206.17,288.15c40.26,42.1,92.68,65,115.66,35,17.67-23.05,22.27-62.39,50.41-62.69,44.79-.48,78.49,128.33,168,85.93l-42.77,95.25L298.57,460.88,197.75,365.06l-5.17-27.71"/></g></g><path class="cls-10" d="M269.68,82.49c47.45-30.94,101.82,66.22,118.43,122.73,22.59,76.85,71.45,54.61,106.67,67.1,46.7,16.57,28.62,75-35.14,73.08C332.51,341.65,323.05,476,230.58,409.68S124.39,191.81,186.45,180,235.35,104.89,269.68,82.49Z"/></g></g></g></svg>